<?xml version="1.0" encoding="UTF-8" standalone="no"?>
<svg
   xmlns:dc="http://purl.org/dc/elements/1.1/"
   xmlns:cc="http://creativecommons.org/ns#"
   xmlns:rdf="http://www.w3.org/1999/02/22-rdf-syntax-ns#"
   xmlns:svg="http://www.w3.org/2000/svg"
   xmlns="http://www.w3.org/2000/svg"
   xmlns:sodipodi="http://sodipodi.sourceforge.net/DTD/sodipodi-0.dtd"
   xmlns:inkscape="http://www.inkscape.org/namespaces/inkscape"
   inkscape:export-ydpi="50"
   inkscape:export-xdpi="50"
   inkscape:export-filename="/home/mercury/documents/Ongoing_projects/nrps/static/drawing.png"
   sodipodi:docname="drawing.svg"
   inkscape:version="1.0 (4035a4fb49, 2020-05-01)"
   id="svg8"
   version="1.1"
   viewBox="0 0 210 297"
   height="297mm"
   width="210mm">
  <defs
     id="defs2">
    <rect
       id="rect34"
       height="17.356049"
       width="46.725836"
       y="98.593725"
       x="80.488102" />
  </defs>
  <sodipodi:namedview
     inkscape:window-maximized="0"
     inkscape:window-y="29"
     inkscape:window-x="30"
     inkscape:window-height="723"
     inkscape:window-width="1300"
     units="in"
     showguides="false"
     showgrid="false"
     inkscape:document-rotation="0"
     inkscape:current-layer="layer1"
     inkscape:document-units="mm"
     inkscape:cy="422.57657"
     inkscape:cx="301.45315"
     inkscape:zoom="1.4"
     inkscape:pageshadow="2"
     inkscape:pageopacity="0.0"
     borderopacity="1.0"
     bordercolor="#666666"
     pagecolor="#ffffff"
     id="base" />
  <metadata
     id="metadata5">
    <rdf:RDF>
      <cc:Work
         rdf:about="">
        <dc:format>image/svg+xml</dc:format>
        <dc:type
           rdf:resource="http://purl.org/dc/dcmitype/StillImage" />
        <dc:title></dc:title>
      </cc:Work>
    </rdf:RDF>
  </metadata>
  <g
     style="display:inline"
     id="layer1"
     inkscape:groupmode="layer"
     inkscape:label="hexagon">
    <path
       d="m 140.91709,110.49856 -18.6154,32.39292 -37.360793,0.0751 -18.745391,-32.31787 18.6154,-32.392921 37.360794,-0.07505 z"
       inkscape:randomized="0"
       inkscape:rounded="0"
       inkscape:flatsided="true"
       sodipodi:arg2="0.52158998"
       sodipodi:arg1="-0.0020088024"
       sodipodi:r2="24.185944"
       sodipodi:r1="37.360867"
       sodipodi:cy="110.57361"
       sodipodi:cx="103.5563"
       sodipodi:sides="6"
       id="path30"
       style="fill:#2b0000;fill-rule:evenodd;stroke-width:0.264583"
       sodipodi:type="star" />
  </g>
  <g
     style="display:inline"
     inkscape:label="reference text"
     id="layer2"
     inkscape:groupmode="layer">
    <text
       transform="matrix(1.5665342,0,0,1.5665342,-48.830357,-57.60724)"
       style="font-style:normal;font-weight:normal;font-size:14.1111px;line-height:1.25;font-family:sans-serif;white-space:pre;shape-inside:url(#rect34);display:inline;fill:#000000;fill-opacity:1;stroke:none;"
       id="text32"
       xml:space="preserve"><tspan
         x="80.488281"
         y="111.42292"><tspan
           style="font-style:normal;font-variant:normal;font-weight:normal;font-stretch:normal;font-size:14.1111px;font-family:'Source Code Pro';-inkscape-font-specification:'Source Code Pro'"> </tspan></tspan></text>
    <path
       id="path75"
       d="m 80.943004,116.51349 0.616411,-13.06038 7.082745,11.89822 0.07309,-12.44083 -1.786959,0.10623 -0.756668,12.94028 -7.105579,-12.06593 -0.01098,12.74967 z"
       style="fill:#ff0000;stroke:#000000;stroke-width:0.264583px;stroke-linecap:butt;stroke-linejoin:miter;stroke-opacity:1" />
    <path
       transform="scale(0.26458333)"
       id="path88"
       d="m 306.80829,405.03117 c -0.11484,-0.17362 -0.56017,-0.91174 -0.98962,-1.64027 l -0.78083,-1.3246 -0.17635,-2.65288 c -0.21265,-3.19906 -0.20932,-3.04896 -0.0643,-2.8991 0.0638,0.066 0.62954,1.23863 1.25712,2.6059 l 1.14106,2.48595 -0.0891,1.87034 c -0.0856,1.79707 -0.0973,1.85797 -0.29793,1.55466 z"
       style="fill:#ff0000;stroke-width:0.126269" />
    <path
       transform="scale(0.26458333)"
       id="path90"
       d="m 328.88263,431.78529 c -0.23636,-0.51265 -0.78206,-1.69634 -1.21267,-2.63041 l -0.78292,-1.69831 0.10342,-1.83567 0.10341,-1.83566 0.96965,1.63994 c 0.68156,1.1527 0.99087,1.80876 1.04107,2.20815 0.125,0.99454 0.33987,4.95197 0.27253,5.01931 -0.0356,0.0356 -0.25813,-0.3547 -0.49449,-0.86735 z"
       style="fill:#ff0000;stroke-width:0.126269" />
    <path
       transform="scale(0.26458333)"
       id="path92"
       d="m 350.55682,414.56707 v -27.33496 l 10.66965,0.0786 c 8.9194,0.0657 10.91863,0.12661 12.1875,0.37148 8.12717,1.56836 12.31833,5.71542 13.03652,12.89936 0.40663,4.06741 -0.42753,7.96598 -2.32884,10.88422 -0.79775,1.22443 -2.66018,3.09235 -3.98031,3.99204 -1.10613,0.75384 -3.48733,1.86473 -4.82054,2.24891 -0.62712,0.18071 -1.00781,0.38162 -0.95946,0.50638 0.0441,0.11375 3.14359,5.45189 6.88781,11.86253 3.74422,6.41063 6.80767,11.69411 6.80767,11.74107 0,0.0469 -1.70758,0.0849 -3.79464,0.0842 l -3.79464,-10e-4 -6.60714,-11.60157 -6.60715,-11.60157 -4.95535,-0.004 -4.95536,-0.005 v 11.60714 11.60714 h -3.39286 -3.39286 z m 21.51786,-1.93786 c 5.35431,-1.49914 8.03089,-5.26076 7.69999,-10.82147 -0.22539,-3.78786 -1.79262,-6.28798 -4.80763,-7.66938 -2.5724,-1.1786 -5.40941,-1.51149 -12.937,-1.518 l -4.6875,-0.004 v 10.28125 10.28125 l 6.65178,-0.0748 c 6.21619,-0.0699 6.74534,-0.10101 8.08036,-0.47479 z"
       style="fill:#ff0000;stroke-width:0.178571" />
    <path
       transform="scale(0.26458333)"
       id="path94"
       d="m 400.86982,414.63088 v -27.14286 h 10.55077 c 11.40316,0 14.10777,0.29764 17.88541,1.9683 2.70754,1.1974 5.5336,3.98805 6.78733,6.70228 0.97074,2.10158 1.02649,2.48515 1.02649,7.06223 v 4.83995 l -1.34496,2.72134 c -2.29849,4.65068 -6.17251,7.40837 -12.13848,8.64067 -1.9212,0.39684 -4.70935,0.56523 -9.35865,0.56523 h -6.6222 v 10.89286 10.89286 h -3.39286 -3.39285 z m 21.14313,-0.40156 c 5.73174,-1.21615 8.58039,-4.67277 8.64605,-10.4913 0.044,-3.89488 -0.63568,-6.04386 -2.50151,-7.90969 -2.43094,-2.43094 -4.85905,-3.01745 -13.44839,-3.24844 l -7.05357,-0.18969 v 11.12034 11.12034 h 6.23242 c 3.42783,0 7.08408,-0.1807 8.125,-0.40156 z"
       style="fill:#ff0000;stroke-width:0.357143" />
    <path
       transform="scale(0.26458333)"
       id="path96"
       d="m 462.8341,442.34019 c -5.01632,-0.98272 -9.71206,-3.19863 -12.93112,-6.10217 l -1.58382,-1.42857 1.88342,-2.18324 1.88341,-2.18324 1.7094,1.3512 c 4.57018,3.61252 8.95612,5.1511 14.57443,5.11269 2.99283,-0.0205 4.17055,-0.18811 5.83284,-0.83028 2.46633,-0.95279 4.30371,-2.47034 5.25963,-4.34409 0.94136,-1.84523 0.94724,-5.56484 0.0117,-7.3837 -1.38223,-2.6872 -3.0318,-3.69623 -13.24699,-8.10306 -7.46985,-3.2225 -9.22571,-4.20206 -11.38833,-6.35338 -2.6488,-2.63495 -3.76076,-5.09591 -3.91036,-8.65433 -0.1425,-3.38926 0.64934,-5.92191 2.65728,-8.49919 6.0728,-7.79471 20.73207,-8.44393 29.74774,-1.31745 l 1.82628,1.44359 -1.67931,2.09863 -1.67931,2.09862 -2.16199,-1.46976 c -2.99273,-2.0345 -6.1731,-3.11923 -9.84057,-3.35633 -5.45442,-0.35261 -9.52793,1.21251 -11.3452,4.35903 -0.69024,1.19513 -0.80757,1.84253 -0.71797,3.96176 0.0902,2.13409 0.26574,2.74117 1.11403,3.85334 1.49694,1.9626 2.96754,2.79175 11.53578,6.5041 4.29342,1.86021 8.66761,3.89938 9.72043,4.5315 2.32742,1.3974 4.67851,3.93078 5.77974,6.22786 1.13802,2.37386 1.38635,7.12619 0.51169,9.79273 -1.69883,5.17915 -5.92116,8.85076 -12.13237,10.54995 -2.67825,0.73268 -8.50127,0.89763 -11.43042,0.32379 z"
       style="fill:#ff0000;stroke-width:0.357143" />
  </g>
  <g
     style="display:inline"
     inkscape:label="text"
     id="layer3"
     inkscape:groupmode="layer">
    <ellipse
       ry="1.2383178"
       rx="1.2620492"
       cy="103.68317"
       cx="80.321556"
       id="path49"
       style="fill:#ff0000;stroke-width:0.278266" />
    <ellipse
       style="fill:#ff0000;stroke-width:0.278266"
       id="ellipse71"
       cx="87.431046"
       cy="115.69688"
       rx="1.2620492"
       ry="1.2383178" />
  </g>
</svg>
